<svg xmlns="http://www.w3.org/2000/svg" width="800" height="964" viewBox="0 0 800 964" version="1.1"><path d="M 153 84.567 C 153 85.165, 215.194 288.619, 286.873 522.500 L 329.779 662.500 387.807 662.758 L 445.834 663.016 447.368 658.258 C 449.743 650.893, 555.725 316.514, 594.423 194.293 C 613.440 134.229, 629 84.841, 629 84.543 C 629 84.244, 606.305 84, 578.567 84 C 531.401 84, 528.101 84.113, 527.616 85.750 C 527.331 86.713, 516.981 122.600, 504.616 165.500 C 492.251 208.400, 471.476 280.400, 458.450 325.500 C 431.188 419.884, 427.795 432.129, 417.020 475 C 412.666 492.325, 405.255 519.888, 400.552 536.251 C 395.848 552.614, 392 566.227, 392 566.501 C 392 566.776, 391.177 567, 390.172 567 C 388.632 567, 386.829 561.774, 378.706 533.750 C 367.692 495.755, 364.354 483.644, 353.009 440.500 C 345.170 410.691, 319.475 315.315, 278.516 164 C 267.871 124.675, 258.658 90.588, 258.042 88.250 L 256.923 84 204.961 84 C 176.383 84, 153 84.255, 153 84.567 M 210 837 L 210 874 391 874 L 572 874 572 837 L 572 800 391 800 L 210 800 210 837" stroke="none" fill="#fcfbeb" fill-rule="evenodd"/><path d="M -0 482.001 L -0 964.002 400.250 963.751 L 800.500 963.500 800.751 481.750 L 801.002 0 400.501 0 L 0 0 -0 482.001 M 0.496 482.500 C 0.496 747.600, 0.610 855.901, 0.750 723.168 C 0.890 590.436, 0.890 373.536, 0.750 241.168 C 0.610 108.801, 0.496 217.400, 0.496 482.500 M 153 84.567 C 153 85.165, 215.194 288.619, 286.873 522.500 L 329.779 662.500 387.807 662.758 L 445.834 663.016 447.368 658.258 C 449.743 650.893, 555.725 316.514, 594.423 194.293 C 613.440 134.229, 629 84.841, 629 84.543 C 629 84.244, 606.305 84, 578.567 84 C 531.401 84, 528.101 84.113, 527.616 85.750 C 527.331 86.713, 516.981 122.600, 504.616 165.500 C 492.251 208.400, 471.476 280.400, 458.450 325.500 C 431.188 419.884, 427.795 432.129, 417.020 475 C 412.666 492.325, 405.255 519.888, 400.552 536.251 C 395.848 552.614, 392 566.227, 392 566.501 C 392 566.776, 391.177 567, 390.172 567 C 388.632 567, 386.829 561.774, 378.706 533.750 C 367.692 495.755, 364.354 483.644, 353.009 440.500 C 345.170 410.691, 319.475 315.315, 278.516 164 C 267.871 124.675, 258.658 90.588, 258.042 88.250 L 256.923 84 204.961 84 C 176.383 84, 153 84.255, 153 84.567 M 210 837 L 210 874 391 874 L 572 874 572 837 L 572 800 391 800 L 210 800 210 837" stroke="none" fill="#fc2404" fill-rule="evenodd"/></svg>